Coordinates
version=1
nRows=10
nColumns=22
inDegrees=yes

Units are S.I. units (second, meters, Newtons, ...)
If the header above contains a line with 'inDegrees', this indicates whether rotational values are in degrees (yes) or radians (no).

endheader
time	pelvis_tilt	pelvis_list	pelvis_rotation	pelvis_tx	pelvis_ty	pelvis_tz	hip_flexion_r	hip_adduction_r	hip_rotation_r	knee_angle_r	ankle_angle_r	subtalar_angle_r	hip_flexion_l	hip_adduction_l	hip_rotation_l	knee_angle_l	ankle_angle_l	subtalar_angle_l	lumbar_extension	lumbar_bending	lumbar_rotation
      3.77000000	     -5.35047717	     -2.33291327	    -36.02853985	      0.12873605	      0.88454587	      0.23937909	     30.78505306	     -0.37822891	     -0.58767627	    -46.90075719	      4.74508323	      9.90000095	     -0.21867890	     -2.72168817	      5.24627810	    -11.12627169	     18.33419989	     -0.67204707	     -1.61509871	      3.61944359	      5.03028163
      3.78000000	     -5.29384110	     -2.20157375	    -35.89661285	      0.13324968	      0.88374176	      0.24217541	     30.85205601	     -0.47423584	     -0.49829610	    -44.54192359	      4.77038943	      9.50628508	     -0.66644420	     -2.54799106	      5.34023151	    -10.91670268	     18.55260227	     -0.84553685	     -1.57370093	      3.48215373	      4.96359117
      3.79000000	     -5.27407779	     -2.06724761	    -35.75528822	      0.13775479	      0.88285675	      0.24500354	     30.90803298	     -0.56714561	     -0.44897821	    -42.11978767	      4.70993612	      9.27846201	     -1.05799194	     -2.39841124	      5.42749962	    -10.75020880	     18.78453947	     -0.97557327	     -1.50344215	      3.37169390	      4.87327804
      3.80000000	     -5.26102180	     -1.91505210	    -35.62937928	      0.14225785	      0.88189573	      0.24791283	     30.94789828	     -0.66829976	     -0.40534425	    -39.66171728	      4.63740909	      9.03678727	     -1.44196054	     -2.23973284	      5.51330717	    -10.57947779	     19.02658911	     -1.13704572	     -1.42045690	      3.24960019	      4.80176928
      3.81000000	     -5.28843921	     -1.71686197	    -35.51764977	      0.14673442	      0.88078857	      0.25089618	     31.03033245	     -0.77775737	     -0.36264180	    -37.18607296	      4.52830000	      8.88102276	     -1.76246068	     -2.06883757	      5.61739550	    -10.41670103	     19.25974034	     -1.25761101	     -1.27459176	      3.11218868	      4.76369079
      3.82000000	     -5.29737410	     -1.54174491	    -35.40038694	      0.15122914	      0.87966730	      0.25393792	     31.04840407	     -0.88637239	     -0.36479990	    -34.68356800	      4.39255601	      8.71301507	     -2.10135001	     -1.91095799	      5.70584420	    -10.28840472	     19.53824232	     -1.42006910	     -1.16929010	      2.98510624	      4.70780655
      3.83000000	     -5.28391343	     -1.37244024	    -35.28066418	      0.15574100	      0.87850593	      0.25703911	     31.02363482	     -1.00422116	     -0.39899298	    -32.18785115	      4.28588929	      8.51762819	     -2.45624824	     -1.74724494	      5.78942828	    -10.18387326	     19.84663631	     -1.64460853	     -1.09767499	      2.85196525	      4.64932283
      3.84000000	     -5.31363822	     -1.16718058	    -35.16849944	      0.16022801	      0.87720000	      0.26020897	     31.05437314	     -1.11635858	     -0.43962443	    -29.71801656	      4.13540423	      8.40428857	     -2.74922478	     -1.58406014	      5.89620968	    -10.08884564	     20.14658837	     -1.81247534	     -0.96895699	      2.71370646	      4.61393803
      3.85000000	     -5.33950840	     -0.95994886	    -35.05454027	      0.16471898	      0.87583235	      0.26344208	     31.07870541	     -1.22633932	     -0.49789118	    -27.29034168	      3.98708892	      8.31910820	     -3.04264398	     -1.42197264	      6.01150845	    -10.00405511	     20.46476636	     -1.98547874	     -0.85137060	      2.57184900	      4.57371261
      3.86000000	     -5.37904933	     -0.74646161	    -34.93741616	      0.16920849	      0.87438315	      0.26672901	     31.12108277	     -1.32693329	     -0.57169363	    -24.92298939	      3.84738345	      8.27944541	     -3.30570700	     -1.26743463	      6.13125857	     -9.95325160	     20.79233592	     -2.12757136	     -0.72627291	      2.43439518	      4.54329908
